<svg xmlns="http://www.w3.org/2000/svg" xmlns:xlink="http://www.w3.org/1999/xlink" width="300" zoomAndPan="magnify" viewBox="0 0 224.87999 52.499999" height="70" preserveAspectRatio="xMidYMid meet" version="1.0"><defs><g/><clipPath id="1ee6261d10"><path d="M 8 6.902344 L 28 6.902344 L 28 34 L 8 34 Z M 8 6.902344 " clip-rule="nonzero"/></clipPath></defs><g fill="#00bf63" fill-opacity="1"><g transform="translate(43.488975, 32.704949)"><g><path d="M 1.859375 -14.734375 L 6.4375 -14.734375 C 8.53125 -14.734375 10.046875 -14.4375 10.984375 -13.84375 C 11.929688 -13.25 12.40625 -12.300781 12.40625 -11 C 12.40625 -10.125 12.195312 -9.40625 11.78125 -8.84375 C 11.375 -8.28125 10.828125 -7.941406 10.140625 -7.828125 L 10.140625 -7.71875 C 11.078125 -7.507812 11.75 -7.117188 12.15625 -6.546875 C 12.570312 -5.972656 12.78125 -5.210938 12.78125 -4.265625 C 12.78125 -2.921875 12.289062 -1.875 11.3125 -1.125 C 10.34375 -0.375 9.03125 0 7.375 0 L 1.859375 0 Z M 4.984375 -8.90625 L 6.796875 -8.90625 C 7.640625 -8.90625 8.25 -9.035156 8.625 -9.296875 C 9.007812 -9.554688 9.203125 -9.988281 9.203125 -10.59375 C 9.203125 -11.15625 8.992188 -11.554688 8.578125 -11.796875 C 8.171875 -12.046875 7.519531 -12.171875 6.625 -12.171875 L 4.984375 -12.171875 Z M 4.984375 -6.421875 L 4.984375 -2.578125 L 7.015625 -2.578125 C 7.867188 -2.578125 8.5 -2.738281 8.90625 -3.0625 C 9.320312 -3.394531 9.53125 -3.898438 9.53125 -4.578125 C 9.53125 -5.804688 8.65625 -6.421875 6.90625 -6.421875 Z M 4.984375 -6.421875 "/></g></g></g><g fill="#00bf63" fill-opacity="1"><g transform="translate(57.358561, 32.704949)"><g><path d="M 6.28125 -9.296875 C 5.625 -9.296875 5.109375 -9.085938 4.734375 -8.671875 C 4.367188 -8.253906 4.160156 -7.664062 4.109375 -6.90625 L 8.421875 -6.90625 C 8.410156 -7.664062 8.210938 -8.253906 7.828125 -8.671875 C 7.441406 -9.085938 6.925781 -9.296875 6.28125 -9.296875 Z M 6.71875 0.203125 C 4.894531 0.203125 3.472656 -0.296875 2.453125 -1.296875 C 1.429688 -2.296875 0.921875 -3.710938 0.921875 -5.546875 C 0.921875 -7.441406 1.394531 -8.90625 2.34375 -9.9375 C 3.289062 -10.96875 4.597656 -11.484375 6.265625 -11.484375 C 7.847656 -11.484375 9.082031 -11.03125 9.96875 -10.125 C 10.863281 -9.21875 11.3125 -7.960938 11.3125 -6.359375 L 11.3125 -4.875 L 4.046875 -4.875 C 4.078125 -4 4.332031 -3.316406 4.8125 -2.828125 C 5.300781 -2.335938 5.984375 -2.09375 6.859375 -2.09375 C 7.535156 -2.09375 8.175781 -2.160156 8.78125 -2.296875 C 9.382812 -2.441406 10.015625 -2.664062 10.671875 -2.96875 L 10.671875 -0.59375 C 10.128906 -0.320312 9.550781 -0.125 8.9375 0 C 8.332031 0.132812 7.59375 0.203125 6.71875 0.203125 Z M 6.71875 0.203125 "/></g></g></g><g fill="#00bf63" fill-opacity="1"><g transform="translate(69.554927, 32.704949)"><g><path d="M 6.359375 -2.25 C 6.898438 -2.25 7.546875 -2.363281 8.296875 -2.59375 L 8.296875 -0.3125 C 7.523438 0.03125 6.582031 0.203125 5.46875 0.203125 C 4.238281 0.203125 3.34375 -0.101562 2.78125 -0.71875 C 2.21875 -1.34375 1.9375 -2.28125 1.9375 -3.53125 L 1.9375 -8.953125 L 0.46875 -8.953125 L 0.46875 -10.265625 L 2.171875 -11.28125 L 3.046875 -13.671875 L 5.015625 -13.671875 L 5.015625 -11.265625 L 8.171875 -11.265625 L 8.171875 -8.953125 L 5.015625 -8.953125 L 5.015625 -3.53125 C 5.015625 -3.09375 5.132812 -2.769531 5.375 -2.5625 C 5.625 -2.351562 5.953125 -2.25 6.359375 -2.25 Z M 6.359375 -2.25 "/></g></g></g><g fill="#00bf63" fill-opacity="1"><g transform="translate(78.515734, 32.704949)"><g><path d="M 6.359375 -2.25 C 6.898438 -2.25 7.546875 -2.363281 8.296875 -2.59375 L 8.296875 -0.3125 C 7.523438 0.03125 6.582031 0.203125 5.46875 0.203125 C 4.238281 0.203125 3.34375 -0.101562 2.78125 -0.71875 C 2.21875 -1.34375 1.9375 -2.28125 1.9375 -3.53125 L 1.9375 -8.953125 L 0.46875 -8.953125 L 0.46875 -10.265625 L 2.171875 -11.28125 L 3.046875 -13.671875 L 5.015625 -13.671875 L 5.015625 -11.265625 L 8.171875 -11.265625 L 8.171875 -8.953125 L 5.015625 -8.953125 L 5.015625 -3.53125 C 5.015625 -3.09375 5.132812 -2.769531 5.375 -2.5625 C 5.625 -2.351562 5.953125 -2.25 6.359375 -2.25 Z M 6.359375 -2.25 "/></g></g></g><g fill="#00bf63" fill-opacity="1"><g transform="translate(87.476541, 32.704949)"><g><path d="M 6.28125 -9.296875 C 5.625 -9.296875 5.109375 -9.085938 4.734375 -8.671875 C 4.367188 -8.253906 4.160156 -7.664062 4.109375 -6.90625 L 8.421875 -6.90625 C 8.410156 -7.664062 8.210938 -8.253906 7.828125 -8.671875 C 7.441406 -9.085938 6.925781 -9.296875 6.28125 -9.296875 Z M 6.71875 0.203125 C 4.894531 0.203125 3.472656 -0.296875 2.453125 -1.296875 C 1.429688 -2.296875 0.921875 -3.710938 0.921875 -5.546875 C 0.921875 -7.441406 1.394531 -8.90625 2.34375 -9.9375 C 3.289062 -10.96875 4.597656 -11.484375 6.265625 -11.484375 C 7.847656 -11.484375 9.082031 -11.03125 9.96875 -10.125 C 10.863281 -9.21875 11.3125 -7.960938 11.3125 -6.359375 L 11.3125 -4.875 L 4.046875 -4.875 C 4.078125 -4 4.332031 -3.316406 4.8125 -2.828125 C 5.300781 -2.335938 5.984375 -2.09375 6.859375 -2.09375 C 7.535156 -2.09375 8.175781 -2.160156 8.78125 -2.296875 C 9.382812 -2.441406 10.015625 -2.664062 10.671875 -2.96875 L 10.671875 -0.59375 C 10.128906 -0.320312 9.550781 -0.125 8.9375 0 C 8.332031 0.132812 7.59375 0.203125 6.71875 0.203125 Z M 6.71875 0.203125 "/></g></g></g><g fill="#00bf63" fill-opacity="1"><g transform="translate(99.672907, 32.704949)"><g><path d="M 7.90625 -11.484375 C 8.320312 -11.484375 8.664062 -11.453125 8.9375 -11.390625 L 8.703125 -8.5 C 8.453125 -8.570312 8.148438 -8.609375 7.796875 -8.609375 C 6.816406 -8.609375 6.050781 -8.351562 5.5 -7.84375 C 4.957031 -7.34375 4.6875 -6.640625 4.6875 -5.734375 L 4.6875 0 L 1.609375 0 L 1.609375 -11.265625 L 3.9375 -11.265625 L 4.390625 -9.375 L 4.546875 -9.375 C 4.890625 -10.007812 5.359375 -10.519531 5.953125 -10.90625 C 6.554688 -11.289062 7.207031 -11.484375 7.90625 -11.484375 Z M 7.90625 -11.484375 "/></g></g></g><g fill="#00bf63" fill-opacity="1"><g transform="translate(109.046973, 32.704949)"><g/></g></g><g fill="#00bf63" fill-opacity="1"><g transform="translate(114.409343, 32.704949)"><g><path d="M 7.53125 0 L 4.421875 0 L 4.421875 -12.140625 L 0.40625 -12.140625 L 0.40625 -14.734375 L 11.546875 -14.734375 L 11.546875 -12.140625 L 7.53125 -12.140625 Z M 7.53125 0 "/></g></g></g><g fill="#00bf63" fill-opacity="1"><g transform="translate(126.363797, 32.704949)"><g><path d="M 4.0625 -5.65625 C 4.0625 -4.539062 4.242188 -3.695312 4.609375 -3.125 C 4.972656 -2.550781 5.570312 -2.265625 6.40625 -2.265625 C 7.21875 -2.265625 7.800781 -2.546875 8.15625 -3.109375 C 8.519531 -3.679688 8.703125 -4.53125 8.703125 -5.65625 C 8.703125 -6.769531 8.519531 -7.601562 8.15625 -8.15625 C 7.800781 -8.71875 7.207031 -9 6.375 -9 C 5.5625 -9 4.972656 -8.722656 4.609375 -8.171875 C 4.242188 -7.617188 4.0625 -6.78125 4.0625 -5.65625 Z M 11.859375 -5.65625 C 11.859375 -3.820312 11.375 -2.382812 10.40625 -1.34375 C 9.4375 -0.3125 8.085938 0.203125 6.359375 0.203125 C 5.273438 0.203125 4.316406 -0.03125 3.484375 -0.5 C 2.660156 -0.976562 2.023438 -1.660156 1.578125 -2.546875 C 1.140625 -3.429688 0.921875 -4.46875 0.921875 -5.65625 C 0.921875 -7.5 1.398438 -8.929688 2.359375 -9.953125 C 3.328125 -10.972656 4.679688 -11.484375 6.421875 -11.484375 C 7.503906 -11.484375 8.457031 -11.242188 9.28125 -10.765625 C 10.101562 -10.296875 10.738281 -9.617188 11.1875 -8.734375 C 11.632812 -7.859375 11.859375 -6.832031 11.859375 -5.65625 Z M 11.859375 -5.65625 "/></g></g></g><g fill="#00bf63" fill-opacity="1"><g transform="translate(139.144783, 32.704949)"><g><path d="M 11.703125 0 L 8.625 0 L 8.625 -6.578125 C 8.625 -7.390625 8.488281 -8 8.21875 -8.40625 C 7.945312 -8.8125 7.519531 -9.015625 6.9375 -9.015625 C 6.144531 -9.015625 5.570312 -8.722656 5.21875 -8.140625 C 4.863281 -7.566406 4.6875 -6.617188 4.6875 -5.296875 L 4.6875 0 L 1.609375 0 L 1.609375 -11.265625 L 3.953125 -11.265625 L 4.375 -9.828125 L 4.546875 -9.828125 C 4.847656 -10.347656 5.285156 -10.753906 5.859375 -11.046875 C 6.429688 -11.335938 7.085938 -11.484375 7.828125 -11.484375 C 9.503906 -11.484375 10.644531 -10.929688 11.25 -9.828125 L 11.515625 -9.828125 C 11.816406 -10.347656 12.257812 -10.753906 12.84375 -11.046875 C 13.4375 -11.335938 14.101562 -11.484375 14.84375 -11.484375 C 16.125 -11.484375 17.085938 -11.15625 17.734375 -10.5 C 18.390625 -9.84375 18.71875 -8.789062 18.71875 -7.34375 L 18.71875 0 L 15.640625 0 L 15.640625 -6.578125 C 15.640625 -7.390625 15.503906 -8 15.234375 -8.40625 C 14.960938 -8.8125 14.535156 -9.015625 13.953125 -9.015625 C 13.191406 -9.015625 12.625 -8.742188 12.25 -8.203125 C 11.882812 -7.671875 11.703125 -6.820312 11.703125 -5.65625 Z M 11.703125 0 "/></g></g></g><g fill="#00bf63" fill-opacity="1"><g transform="translate(159.414947, 32.704949)"><g><path d="M 4.0625 -5.65625 C 4.0625 -4.539062 4.242188 -3.695312 4.609375 -3.125 C 4.972656 -2.550781 5.570312 -2.265625 6.40625 -2.265625 C 7.21875 -2.265625 7.800781 -2.546875 8.15625 -3.109375 C 8.519531 -3.679688 8.703125 -4.53125 8.703125 -5.65625 C 8.703125 -6.769531 8.519531 -7.601562 8.15625 -8.15625 C 7.800781 -8.71875 7.207031 -9 6.375 -9 C 5.5625 -9 4.972656 -8.722656 4.609375 -8.171875 C 4.242188 -7.617188 4.0625 -6.78125 4.0625 -5.65625 Z M 11.859375 -5.65625 C 11.859375 -3.820312 11.375 -2.382812 10.40625 -1.34375 C 9.4375 -0.3125 8.085938 0.203125 6.359375 0.203125 C 5.273438 0.203125 4.316406 -0.03125 3.484375 -0.5 C 2.660156 -0.976562 2.023438 -1.660156 1.578125 -2.546875 C 1.140625 -3.429688 0.921875 -4.46875 0.921875 -5.65625 C 0.921875 -7.5 1.398438 -8.929688 2.359375 -9.953125 C 3.328125 -10.972656 4.679688 -11.484375 6.421875 -11.484375 C 7.503906 -11.484375 8.457031 -11.242188 9.28125 -10.765625 C 10.101562 -10.296875 10.738281 -9.617188 11.1875 -8.734375 C 11.632812 -7.859375 11.859375 -6.832031 11.859375 -5.65625 Z M 11.859375 -5.65625 "/></g></g></g><g fill="#00bf63" fill-opacity="1"><g transform="translate(172.195933, 32.704949)"><g><path d="M 7.90625 -11.484375 C 8.320312 -11.484375 8.664062 -11.453125 8.9375 -11.390625 L 8.703125 -8.5 C 8.453125 -8.570312 8.148438 -8.609375 7.796875 -8.609375 C 6.816406 -8.609375 6.050781 -8.351562 5.5 -7.84375 C 4.957031 -7.34375 4.6875 -6.640625 4.6875 -5.734375 L 4.6875 0 L 1.609375 0 L 1.609375 -11.265625 L 3.9375 -11.265625 L 4.390625 -9.375 L 4.546875 -9.375 C 4.890625 -10.007812 5.359375 -10.519531 5.953125 -10.90625 C 6.554688 -11.289062 7.207031 -11.484375 7.90625 -11.484375 Z M 7.90625 -11.484375 "/></g></g></g><g fill="#00bf63" fill-opacity="1"><g transform="translate(181.569999, 32.704949)"><g><path d="M 7.90625 -11.484375 C 8.320312 -11.484375 8.664062 -11.453125 8.9375 -11.390625 L 8.703125 -8.5 C 8.453125 -8.570312 8.148438 -8.609375 7.796875 -8.609375 C 6.816406 -8.609375 6.050781 -8.351562 5.5 -7.84375 C 4.957031 -7.34375 4.6875 -6.640625 4.6875 -5.734375 L 4.6875 0 L 1.609375 0 L 1.609375 -11.265625 L 3.9375 -11.265625 L 4.390625 -9.375 L 4.546875 -9.375 C 4.890625 -10.007812 5.359375 -10.519531 5.953125 -10.90625 C 6.554688 -11.289062 7.207031 -11.484375 7.90625 -11.484375 Z M 7.90625 -11.484375 "/></g></g></g><g fill="#00bf63" fill-opacity="1"><g transform="translate(190.944066, 32.704949)"><g><path d="M 4.0625 -5.65625 C 4.0625 -4.539062 4.242188 -3.695312 4.609375 -3.125 C 4.972656 -2.550781 5.570312 -2.265625 6.40625 -2.265625 C 7.21875 -2.265625 7.800781 -2.546875 8.15625 -3.109375 C 8.519531 -3.679688 8.703125 -4.53125 8.703125 -5.65625 C 8.703125 -6.769531 8.519531 -7.601562 8.15625 -8.15625 C 7.800781 -8.71875 7.207031 -9 6.375 -9 C 5.5625 -9 4.972656 -8.722656 4.609375 -8.171875 C 4.242188 -7.617188 4.0625 -6.78125 4.0625 -5.65625 Z M 11.859375 -5.65625 C 11.859375 -3.820312 11.375 -2.382812 10.40625 -1.34375 C 9.4375 -0.3125 8.085938 0.203125 6.359375 0.203125 C 5.273438 0.203125 4.316406 -0.03125 3.484375 -0.5 C 2.660156 -0.976562 2.023438 -1.660156 1.578125 -2.546875 C 1.140625 -3.429688 0.921875 -4.46875 0.921875 -5.65625 C 0.921875 -7.5 1.398438 -8.929688 2.359375 -9.953125 C 3.328125 -10.972656 4.679688 -11.484375 6.421875 -11.484375 C 7.503906 -11.484375 8.457031 -11.242188 9.28125 -10.765625 C 10.101562 -10.296875 10.738281 -9.617188 11.1875 -8.734375 C 11.632812 -7.859375 11.859375 -6.832031 11.859375 -5.65625 Z M 11.859375 -5.65625 "/></g></g></g><g fill="#00bf63" fill-opacity="1"><g transform="translate(203.725052, 32.704949)"><g><path d="M 10.875 0 L 10.015625 -3.9375 L 8.84375 -8.921875 L 8.765625 -8.921875 L 6.71875 0 L 3.40625 0 L 0.203125 -11.265625 L 3.265625 -11.265625 L 4.5625 -6.28125 C 4.769531 -5.382812 4.984375 -4.148438 5.203125 -2.578125 L 5.265625 -2.578125 C 5.285156 -3.085938 5.398438 -3.898438 5.609375 -5.015625 L 5.78125 -5.859375 L 7.171875 -11.265625 L 10.546875 -11.265625 L 11.875 -5.859375 C 11.894531 -5.710938 11.929688 -5.492188 11.984375 -5.203125 C 12.046875 -4.921875 12.101562 -4.613281 12.15625 -4.28125 C 12.21875 -3.957031 12.269531 -3.640625 12.3125 -3.328125 C 12.351562 -3.015625 12.378906 -2.765625 12.390625 -2.578125 L 12.453125 -2.578125 C 12.503906 -3.066406 12.609375 -3.726562 12.765625 -4.5625 C 12.921875 -5.40625 13.035156 -5.976562 13.109375 -6.28125 L 14.453125 -11.265625 L 17.46875 -11.265625 L 14.21875 0 Z M 10.875 0 "/></g></g></g><path fill="#92c730" d="M 36.796875 37.109375 C 33.070312 43.21875 28.5 44.035156 24.167969 42.199219 C 24.191406 41.316406 24.261719 40.367188 24.390625 39.363281 C 25.238281 32.796875 33.558594 21.902344 33.65625 21.773438 C 33.554688 21.855469 25.128906 28.917969 22.28125 37.738281 C 21.921875 38.855469 21.679688 39.859375 21.535156 40.753906 C 17.019531 37.707031 14.882812 32.945312 19.03125 26.144531 C 23.355469 19.058594 37.769531 15.46875 37.769531 15.46875 C 37.769531 15.46875 41.121094 30.023438 36.796875 37.109375 Z M 36.796875 37.109375 " fill-opacity="1" fill-rule="nonzero"/><g clip-path="url(#1ee6261d10)"><path fill="#78a831" d="M 27.203125 17.894531 C 24.023438 19.410156 20.769531 21.417969 18.734375 23.921875 C 15.695312 19.140625 13.109375 14.015625 13.050781 13.867188 C 13.074219 14.023438 14.402344 19.722656 17.617188 25.5625 C 15.953125 28.433594 15.425781 30.933594 15.726562 33.089844 C 13.597656 32.347656 11.597656 30.574219 9.90625 27.402344 C 6.203125 20.476562 10.148438 6.917969 10.148438 6.917969 C 10.148438 6.917969 23.410156 11.042969 27.203125 17.894531 Z M 27.203125 17.894531 " fill-opacity="1" fill-rule="nonzero"/></g></svg>